<?xml version="1.0"?>
<svg xmlns="http://www.w3.org/2000/svg">
  <symbol id="left-arrow" viewBox="0 0 492 492">
    <path d="M198.608 246.104L382.664 62.04c5.068-5.056 7.856-11.816 7.856-19.024 0-7.212-2.788-13.968-7.856-19.032l-16.128-16.12C361.476 2.792 354.712 0 347.504 0s-13.964 2.792-19.028 7.864L109.328 227.008c-5.084 5.08-7.868 11.868-7.848 19.084-.02 7.248 2.76 14.028 7.848 19.112l218.944 218.932c5.064 5.072 11.82 7.864 19.032 7.864 7.208 0 13.964-2.792 19.032-7.864l16.124-16.12c10.492-10.492 10.492-27.572 0-38.06L198.608 246.104z"/>
  </symbol>
  <symbol id="pen" viewBox="0 0 528.899 528.899">
    <path d="M328.883 89.125l107.59 107.589-272.34 272.34L56.604 361.465l272.279-272.34zm189.23-25.948l-47.981-47.981c-18.543-18.543-48.653-18.543-67.259 0l-45.961 45.961 107.59 107.59 53.611-53.611c14.382-14.383 14.382-37.577 0-51.959zM.3 512.69c-1.958 8.812 5.998 16.708 14.811 14.565l119.891-29.069L27.473 390.597.3 512.69z"/>
  </symbol>
  <symbol id="plus" viewBox="0 0 42 42">
    <path d="M42 19H23V0h-4v19H0v4h19v19h4V23h19z"/>
  </symbol>
  <symbol id="right-arrow" viewBox="0 0 492.004 492.004">
    <path d="M382.678 226.804L163.73 7.86C158.666 2.792 151.906 0 144.698 0s-13.968 2.792-19.032 7.86l-16.124 16.12c-10.492 10.504-10.492 27.576 0 38.064L293.398 245.9l-184.06 184.06c-5.064 5.068-7.86 11.824-7.86 19.028 0 7.212 2.796 13.968 7.86 19.04l16.124 16.116c5.068 5.068 11.824 7.86 19.032 7.86s13.968-2.792 19.032-7.86L382.678 265c5.076-5.084 7.864-11.872 7.848-19.088.016-7.244-2.772-14.028-7.848-19.108z"/>
  </symbol>
  <symbol id="search" viewBox="0 0 30.239 30.239">
    <path d="M20.194 3.46c-4.613-4.613-12.121-4.613-16.734 0-4.612 4.614-4.612 12.121 0 16.735 4.108 4.107 10.506 4.547 15.116 1.34.097.459.319.897.676 1.254l6.718 6.718a2.498 2.498 0 0 0 3.535 0 2.496 2.496 0 0 0 0-3.535l-6.718-6.72a2.5 2.5 0 0 0-1.253-.674c3.209-4.611 2.769-11.008-1.34-15.118zm-2.121 14.614c-3.444 3.444-9.049 3.444-12.492 0-3.442-3.444-3.442-9.048 0-12.492 3.443-3.443 9.048-3.443 12.492 0 3.444 3.444 3.444 9.048 0 12.492z"/>
  </symbol>
  <symbol id="trash" viewBox="0 0 59 59">
    <path d="M52.5 6H38.456c-.11-1.25-.495-3.358-1.813-4.711C35.809.434 34.751 0 33.499 0H23.5c-1.252 0-2.31.434-3.144 1.289C19.038 2.642 18.653 4.75 18.543 6H6.5a1 1 0 1 0 0 2h2.041l1.915 46.021C10.493 55.743 11.565 59 15.364 59h28.272c3.799 0 4.871-3.257 4.907-4.958L50.459 8H52.5a1 1 0 1 0 0-2zm-32 44a1 1 0 1 1-2 0V17a1 1 0 1 1 2 0v33zm10 0a1 1 0 1 1-2 0V17a1 1 0 1 1 2 0v33zm10 0a1 1 0 1 1-2 0V17a1 1 0 1 1 2 0v33zM21.792 2.681C22.24 2.223 22.799 2 23.5 2h9.999c.701 0 1.26.223 1.708.681.805.823 1.128 2.271 1.24 3.319H20.553c.112-1.048.435-2.496 1.239-3.319z"/>
  </symbol>
</svg>
